<?xml version="1.0" encoding="UTF-8"?>
<svg id="Layer_1" data-name="Layer 1" xmlns="http://www.w3.org/2000/svg" viewBox="0 0 265.94 51.83">
  <defs>
    <style>
      .cls-1 {
        fill: #679436;
      }

      .cls-2 {
        fill: #e3e3e3;
      }

      .cls-3 {
        fill: #a5be00;
      }

      .cls-4 {
        fill: #8d6b94;
      }
    </style>
  </defs>
  <rect class="cls-1" x="16.61" y="23.99" width="10.41" height="27.12"/>
  <rect class="cls-4" x="33.21" y="15.06" width="10.41" height="36.05"/>
  <rect class="cls-3" y="36.42" width="10.43" height="14.7"/>
  <g>
    <path class="cls-2" d="M51.75,50.43l.47-24.51-.32-17.06h-13.89c-.4,0-.65-.25-.65-.68V1.37c0-.4.25-.65.65-.65h38.98c.43,0,.68.25.68.65v6.8c0,.43-.25.68-.68.68h-13.89l-.32,17.06.47,24.51c0,.47-.25.68-.65.68h-10.15c-.43,0-.68-.22-.68-.68Z"/>
    <path class="cls-2" d="M71.3,32.68c0-10.73,6.19-19.37,16.27-19.37,4.61,0,8.21,1.66,10.73,4.68l-.18-3.28c-.04-.43.22-.68.61-.68h9.58c.43,0,.65.22.65.65l-.18,17.93.18,17.82c0,.47-.22.68-.65.68h-9.5c-.43,0-.65-.25-.61-.68l.11-3.64c-2.59,3.17-6.26,5.04-10.94,5.04-10.51,0-16.05-8.35-16.05-19.15ZM98.51,32.83c.07-7.92-2.74-12.24-7.92-12.31-5.47-.14-8.28,3.96-8.28,11.59,0,8.35,2.88,12.6,8.06,12.53,5.25,0,8.06-3.96,8.13-11.81Z"/>
    <path class="cls-2" d="M114.1,50.43l.25-17.89-.25-17.85c0-.43.25-.65.68-.65h9.39c.43,0,.65.22.65.68l-.25,5.58c2.88-4.39,7.85-6.55,13.25-6.55.58,0,1.19.07,1.73.18.36.07.58.36.58.72v6.66c0,.43-.25.68-.68.65-.43-.04-.94-.07-1.33-.07-7.63,0-13.25,4.25-13.25,12.74l.04,15.8c0,.43-.25.68-.65.68h-9.47c-.43,0-.68-.22-.68-.68Z"/>
    <path class="cls-2" d="M144.05,50.43l.22-17.82-.22-17.93c0-.43.25-.65.68-.65h9.68c.4,0,.65.22.65.65l-.22,17.93.22,17.82c0,.47-.25.68-.65.68h-9.68c-.43,0-.68-.22-.68-.68ZM144.09,9.75V1.37c0-.4.25-.65.68-.65h9.61c.4,0,.65.25.65.65v8.39c0,.43-.25.68-.65.68h-9.61c-.43,0-.68-.25-.68-.68Z"/>
    <path class="cls-2" d="M164.79,50.43l.32-15.66v-13.1h-4.93c-.43,0-.68-.25-.68-.68v-6.3c0-.4.25-.65.68-.65h4.93v-2.45c0-8.42,5.9-11.59,12.09-11.59,2.27,0,4.93.36,6.77.61.36.07.58.32.58.72v6.19c0,.47-.29.68-.72.54-1.08-.22-2.41-.36-4.1-.36-2.38,0-4.03,1.15-4.03,4.89v1.44h8.21c.4,0,.65.25.65.65v6.3c0,.43-.25.68-.65.68h-8.21v13.1l.32,15.66c0,.47-.25.68-.65.68h-9.9c-.43,0-.68-.22-.68-.68Z"/>
    <path class="cls-2" d="M193.08,50.43l.32-15.66v-13.1h-4.93c-.43,0-.68-.25-.68-.68v-6.3c0-.4.25-.65.68-.65h4.93v-2.45c0-8.42,5.9-11.59,12.09-11.59,2.27,0,4.93.36,6.77.61.36.07.58.32.58.72v6.19c0,.47-.29.68-.72.54-1.08-.22-2.41-.36-4.1-.36-2.38,0-4.03,1.15-4.03,4.89v1.44h8.21c.4,0,.65.25.65.65v6.3c0,.43-.25.68-.65.68h-8.21v13.1l.32,15.66c0,.47-.25.68-.65.68h-9.9c-.43,0-.68-.22-.68-.68ZM215.47,50.43l.22-17.82-.22-17.93c0-.43.22-.65.65-.65h9.68c.43,0,.65.22.65.65l-.18,17.93.18,17.82c0,.47-.22.68-.65.68h-9.68c-.43,0-.65-.22-.65-.68ZM215.51,9.75V1.37c0-.4.25-.65.65-.65h9.61c.43,0,.68.25.68.65v8.39c0,.43-.25.68-.68.68h-9.61c-.43,0-.65-.25-.65-.68Z"/>
    <path class="cls-2" d="M229.94,50.32l10.98-18.79-10.44-16.7c-.29-.47-.07-.79.47-.79h10.62c.32,0,.61.14.79.47l6.34,11.81,5.83-11.77c.14-.36.4-.5.79-.5h9.39c.5,0,.72.32.47.79l-10.08,17.28,10.73,18.21c.25.47.04.79-.47.79h-10.69c-.4,0-.65-.14-.79-.47l-6.41-12.42-6.55,12.42c-.18.32-.43.47-.79.47h-9.72c-.5,0-.72-.32-.47-.79Z"/>
  </g>
</svg>